<svg xmlns="http://www.w3.org/2000/svg" width="32" height="32" viewBox="0 0 500 500">
  <path fill="currentColor" d="m 126.32589,211.42029 c -2.4512,-0.31747 -4.78337,-0.90386 -5.18261,-1.30309 -0.39924,-0.39925 -1.36763,-0.73652 -2.15198,-0.7495 -0.78434,-0.013 -2.67826,-0.62844 -4.20869,-1.3677 -1.53044,-0.73926 -3.17391,-1.35472 -3.65218,-1.3677 -0.47826,-0.013 -0.86956,-0.27822 -0.86956,-0.58941 0,-0.3112 -1.09565,-0.99572 -2.43478,-1.52115 -1.33913,-0.52543 -2.43479,-1.20995 -2.43479,-1.52115 0,-0.31119 -0.45401,-0.56581 -1.00891,-0.56581 -0.5549,0 -1.25925,-0.41907 -1.56521,-0.93125 -0.30597,-0.51219 -1.07376,-1.21654 -1.70619,-1.56522 -2.784988,-1.53544 -9.156568,-8.26724 -12.715581,-13.43444 -2.130519,-3.09323 -3.87367,-5.87321 -3.87367,-6.17774 0,-0.30453 -0.626087,-1.78172 -1.391304,-3.28265 -0.765218,-1.50093 -1.391305,-3.28886 -1.391305,-3.97318 0,-0.68432 -0.277499,-1.24421 -0.616665,-1.24421 -0.339166,0 -0.838027,-1.48696 -1.108582,-3.30435 -0.270554,-1.81739 -0.821105,-3.70422 -1.223447,-4.19295 -0.956371,-1.16173 -0.976499,-19.98363 -0.02265,-21.17932 0.389885,-0.48873 0.922979,-2.36826 1.184653,-4.17673 0.261675,-1.80848 0.770729,-3.47043 1.131232,-3.69323 0.360502,-0.22281 0.655458,-0.90318 0.655458,-1.51193 0,-1.28257 3.57306,-8.78556 4.347827,-9.1299 0.286956,-0.12754 0.521739,-0.53152 0.521739,-0.89774 0,-0.87218 2.884863,-4.97414 4,-5.68755 0.478261,-0.30597 0.869565,-0.88782 0.869565,-1.29301 0,-0.98047 7.287623,-8.23764 8.272211,-8.23764 0.424199,0 0.771269,-0.25744 0.771269,-0.57208 0,-0.63024 5.34649,-4.29749 6.26533,-4.29749 0.31639,0 0.6796,-0.23478 0.80713,-0.52174 0.33216,-0.74736 7.9429,-4.347821 9.19052,-4.347821 0.57542,0 1.22851,-0.294957 1.45131,-0.655458 0.2228,-0.360501 1.88475,-0.873516 3.69323,-1.140034 1.80847,-0.266512 3.49518,-0.806025 3.74824,-1.198915 0.61538,-0.955423 21.44124,-0.926039 22.04851,0.0311 0.24634,0.388272 1.80392,0.932647 3.46128,1.209726 1.65736,0.277078 3.84867,0.939805 4.86957,1.472737 1.0209,0.532932 2.87357,1.162017 4.11705,1.397969 1.24348,0.235956 2.26087,0.682336 2.26087,0.991966 0,0.30963 0.93913,0.76923 2.08696,1.02133 1.14783,0.2521 2.08696,0.74655 2.08696,1.09875 0,0.35221 1.25217,0.64038 2.7826,0.64038 1.53044,0 2.78261,-0.31304 2.78261,-0.69565 0,-0.38261 0.57819,-0.69565 1.28487,-0.69565 4.92972,0 7.39865,-10.211165 3.54365,-14.656027 -1.34776,-1.553958 -7.24554,-4.760862 -8.82852,-4.800465 -0.47826,-0.01196 -0.86956,-0.334798 -0.86956,-0.717406 0,-0.382609 -0.50052,-0.695653 -1.11226,-0.695653 -0.61174,0 -2.0987,-0.437877 -3.30435,-0.97306 -2.20795,-0.9801 -6.82597,-2.312974 -10.366,-2.991881 -2.74175,-0.525813 -2.58692,-1.308627 2.32065,-11.732954 0.73234,-1.555582 1.33152,-3.172973 1.33152,-3.594203 0,-0.42123 0.23479,-0.87022 0.52174,-0.997757 0.28696,-0.127536 1.96013,-2.423188 3.71815,-5.101449 3.32438,-5.064515 6.90635,-9.39145 11.06446,-13.365633 6.05479,-5.786956 7.38118,-6.931852 8.52174,-7.355698 0.66957,-0.248816 1.21739,-0.754167 1.21739,-1.123002 0,-0.368833 0.68975,-0.889523 1.53277,-1.157089 0.84303,-0.267566 1.92782,-0.836487 2.41065,-1.26427 2.17769,-1.929422 2.87805,-2.379053 4.45784,-2.861908 0.92714,-0.283374 2.15526,-0.923374 2.72918,-1.422223 0.57391,-0.498848 1.90434,-1.121844 2.95652,-1.384436 1.05217,-0.262592 1.91304,-0.742362 1.91304,-1.066155 0,-0.323794 1.09911,-0.79491 2.44247,-1.046925 1.34335,-0.252015 2.59717,-0.708527 2.78625,-1.01447 0.18908,-0.305943 1.59432,-0.767537 3.12275,-1.025763 1.52843,-0.258227 2.77897,-0.69866 2.77897,-0.978741 0,-0.949098 12.28352,-2.151074 21.99188,-2.151966 9.978,-9.17e-4 21.13855,1.157063 21.13855,2.193263 0,0.324629 0.86087,0.600855 1.91304,0.613838 1.05218,0.01298 3.16522,0.628447 4.69566,1.3677 1.53043,0.739252 3.33043,1.354717 4,1.3677 0.66956,0.01298 1.21739,0.336648 1.21739,0.719256 0,0.382609 0.3913,0.700897 0.86956,0.707307 0.47826,0.0064 2.59131,0.934147 4.69566,2.061638 2.10434,1.12749 4.60869,2.450469 5.56521,2.939952 1.67177,0.855497 2.54356,1.455636 4.37197,3.009651 0.46499,0.395201 1.94108,1.483382 3.28021,2.418179 2.20253,1.537504 13.21739,12.238866 13.21739,12.841204 0,0.137749 -1.09565,1.378674 -2.43478,2.757612 -1.33914,1.378937 -2.43479,2.798952 -2.43479,3.155589 0,0.356637 -0.39328,0.898767 -0.87395,1.204736 -1.54226,0.981703 -5.38692,9.368954 -5.38692,11.751723 0,2.783306 1.18548,5.710618 3.06663,7.572463 1.03088,1.020303 2.58303,1.44394 5.99725,1.636861 4.28858,0.242326 4.74906,0.123343 6.6736,-1.724401 1.13695,-1.091578 2.67853,-3.232086 3.42572,-4.756684 0.7472,-1.524598 1.67159,-3.1124 2.05419,-3.52845 0.38261,-0.416049 1.45225,-1.86098 2.37698,-3.210957 0.92472,-1.349978 3.11603,-3.348677 4.86956,-4.441553 1.75353,-1.092876 3.34477,-2.195252 3.53607,-2.449725 0.63685,-0.847135 6.85936,-3.423406 8.26861,-3.423406 0.76362,0 1.58188,-0.313043 1.81835,-0.695652 0.53802,-0.870544 13.56522,-0.929264 13.56522,-0.06115 0,0.348978 1.25217,0.84606 2.78261,1.104625 1.53043,0.258566 2.7826,0.730774 2.7826,1.049352 0,0.318577 0.93913,0.7855 2.08696,1.037605 1.14783,0.252105 2.08696,0.746543 2.08696,1.098751 0,0.35221 0.41424,0.64038 0.92053,0.64038 1.55789,0 10.90555,9.929791 10.90555,11.584703 0,0.51537 0.27497,0.937037 0.61104,0.937037 0.56835,0 2.33745,5.631225 1.90496,6.063709 -0.10756,0.10756 -1.57853,0.487678 -3.26882,0.844705 -5.23773,1.106325 -9.24218,2.235082 -11.52622,3.24896 -1.20565,0.535183 -2.69261,0.97306 -3.30435,0.97306 -0.61174,0 -1.11226,0.313044 -1.11226,0.695653 0,0.382608 -0.3261,0.695652 -0.72466,0.695652 -0.75811,0 -8.35141,3.567994 -10.7536,5.052967 -0.76522,0.473043 -1.64164,1.251381 -1.94761,1.729641 -0.30597,0.478261 -0.87469,0.869566 -1.26383,0.869566 -0.38914,0 -1.86054,1.087805 -3.26978,2.417342 -2.50804,2.366192 -2.56226,2.527277 -2.56226,7.612352 0,6.78061 1.29556,8.22231 7.75869,8.63385 3.86871,0.24634 4.72511,0.0511 7.51977,-1.71451 1.73461,-1.09588 3.1544,-2.2273 3.15508,-2.51425 6.9e-4,-0.28696 0.42292,-0.52174 0.93828,-0.52174 0.51537,0 1.65892,-0.62609 2.54123,-1.39131 0.8823,-0.76522 2.02585,-1.3913 2.54122,-1.3913 0.51537,0 0.93704,-0.28183 0.93704,-0.62627 0,-0.34445 1.56618,-1.001987 3.4804,-1.461201 1.91423,-0.459214 3.64326,-1.098435 3.8423,-1.420494 0.19905,-0.322059 1.84156,-0.803617 3.65003,-1.070135 1.80848,-0.266512 3.50156,-0.816341 3.76241,-1.221844 0.68158,-1.05952 21.22895,-0.949002 22.29789,0.11993 0.44574,0.445747 1.37116,0.810449 2.05646,0.810449 1.52888,0 11.90674,3.510845 12.38877,4.191145 0.1913,0.26999 1.05217,0.7107 1.91304,0.97936 0.86087,0.26866 1.56522,0.78041 1.56522,1.13724 0,0.35682 0.41303,0.64877 0.91784,0.64877 3.02833,0 17.18164,13.75665 19.58465,19.03577 0.37202,0.81728 0.87779,1.64249 1.12394,1.8338 1.42521,1.10767 6.19966,13.32451 6.19966,15.86364 0,0.68717 0.3747,1.62411 0.83267,2.08208 1.08429,1.08429 1.16519,21.16382 0.0907,22.51355 -0.40809,0.51262 -0.95102,2.09272 -1.20651,3.51134 -0.2555,1.41863 -0.92048,3.45341 -1.47773,4.52174 -0.55725,1.06834 -1.01511,2.2349 -1.01747,2.59237 -0.007,1.00766 -2.95476,6.8928 -3.96821,7.92149 -0.4981,0.50559 -0.90564,1.36646 -0.90564,1.91304 0,0.54659 -0.23478,0.99593 -0.52174,0.99854 -0.28695,0.003 -1.30434,1.15628 -2.26087,2.5637 -2.02747,2.98323 -7.92465,8.94437 -10.43478,10.54797 -0.95652,0.61108 -1.98947,1.50987 -2.29544,1.99731 -0.30596,0.48746 -1.01031,0.88627 -1.56521,0.88627 -0.5549,0 -1.00891,0.29278 -1.00891,0.65063 0,0.35784 -1.09566,1.04681 -2.43479,1.53105 -1.33913,0.48424 -2.43478,1.13059 -2.43478,1.43633 0,0.30575 -0.3913,0.56653 -0.86956,0.57951 -0.47827,0.013 -2.12174,0.62844 -3.65218,1.3677 -1.53043,0.73926 -3.46087,1.35472 -4.28986,1.3677 -0.82898,0.013 -1.61159,0.31888 -1.73913,0.67977 -0.50549,1.4304 -13.25799,2.12644 -38.95961,2.12644 h -26.93815 l -0.21054,-21.73913 c -0.1916,-19.78412 -0.32916,-21.95809 -1.52962,-24.17391 -1.51583,-2.79793 -6.14333,-7.65217 -7.29472,-7.65217 -0.42763,0 -0.7775,-0.25462 -0.7775,-0.56581 0,-0.3112 -1.09565,-0.99572 -2.43478,-1.52115 -1.33913,-0.52543 -2.43478,-1.17601 -2.43478,-1.44573 0,-0.26972 -0.85774,-0.70568 -1.90608,-0.9688 -1.04834,-0.26311 -2.06573,-0.73074 -2.26087,-1.03918 -0.41152,-0.65046 -7.11292,-4.54165 -9.92001,-5.76008 -1.05217,-0.4567 -1.91304,-1.07478 -1.91304,-1.37351 0,-0.29873 -0.44721,-0.54314 -0.99379,-0.54314 -0.54659,0 -1.40746,-0.40276 -1.91305,-0.89504 -0.50559,-0.49228 -2.48447,-1.71024 -4.39751,-2.70658 -6.5792,-3.42654 -8.2867,-4.40053 -9.23534,-5.26794 -0.52305,-0.47826 -1.3982,-0.86957 -1.94479,-0.86957 -0.54658,0 -0.99379,-0.28242 -0.99379,-0.62759 0,-0.34519 -0.86086,-0.97557 -1.91304,-1.40087 -1.05217,-0.42529 -4.21418,-2.02113 -7.02668,-3.54631 -4.6345,-2.51322 -5.58937,-2.77305 -10.19071,-2.77305 -4.60134,0 -5.55621,0.25983 -10.19071,2.77305 -2.8125,1.52518 -5.97451,3.12102 -7.02668,3.54631 -1.05218,0.4253 -1.91304,1.05568 -1.91304,1.40087 0,0.34517 -0.44721,0.62759 -0.99379,0.62759 -0.54659,0 -1.40746,0.39496 -1.91305,0.87768 -0.50559,0.48273 -1.70186,1.25357 -2.65838,1.713 -0.95652,0.45942 -3.61739,1.93609 -5.91305,3.28149 -2.29565,1.34541 -4.95652,2.83775 -5.91304,3.31633 -0.95652,0.47858 -1.89565,1.03941 -2.08696,1.24629 -0.1913,0.20688 -1.13043,0.76192 -2.08695,1.23344 -3.5242,1.73723 -9.40185,5.2035 -9.7461,5.74763 -0.19514,0.30844 -1.21253,0.77607 -2.26087,1.03918 -1.04834,0.26312 -1.90608,0.73724 -1.90608,1.05361 0,0.31637 -1.09565,0.9714 -2.43478,1.45564 -1.33913,0.48424 -2.43478,1.13059 -2.43478,1.43633 0,0.30575 -0.34987,0.55591 -0.7775,0.55591 -1.15139,0 -5.77889,4.85424 -7.29472,7.65217 -1.20046,2.21582 -1.33802,4.38979 -1.52962,24.17391 l -0.21054,21.73913 -27.96338,-0.0882 c -15.37985,-0.0485 -29.96889,-0.34795 -32.42009,-0.66541 z"  />
  <path fill="currentColor" d="m 244.34783,256.91177 c -0.66957,-0.17497 -1.2174,-0.55704 -1.2174,-0.84902 0,-0.292 -1.8,-1.43351 -4,-2.53669 -2.2,-1.10319 -4.41366,-2.40656 -4.91925,-2.89637 -0.50559,-0.48981 -1.36646,-0.89056 -1.91304,-0.89056 -0.54659,0 -0.99379,-0.24441 -0.99379,-0.54314 0,-0.29873 -0.86087,-0.92238 -1.91305,-1.38589 -1.05217,-0.46351 -3.7913,-1.92825 -6.08695,-3.25496 -2.29565,-1.32672 -4.95652,-2.80974 -5.91305,-3.29561 -0.95652,-0.48586 -1.89565,-1.04628 -2.08695,-1.24537 -0.41941,-0.43649 -3.11954,-2.00012 -5.73913,-3.32352 -1.05218,-0.53155 -1.91305,-1.38701 -1.91305,-1.90101 0,-0.51401 -0.3913,-1.06478 -0.86956,-1.22395 -0.66733,-0.22209 -0.91621,-5.7364 -1.07014,-23.71014 -0.21601,-25.2234 -0.27273,-24.84834 3.33101,-22.02945 0.95652,0.7482 2.13043,1.36733 2.60869,1.37583 0.47826,0.009 0.86957,0.25988 0.86957,0.55861 0,0.29873 0.86087,0.92242 1.91304,1.38598 1.05218,0.46357 3.79131,1.95266 6.08696,3.30909 2.29565,1.35643 4.95652,2.83941 5.91304,3.29551 0.95652,0.4561 1.89565,0.99216 2.08696,1.19125 0.55418,0.57674 2.81725,1.89024 7.30435,4.23949 2.29565,1.2019 4.33238,2.38637 4.52607,2.63215 0.19369,0.24578 1.60239,1.11874 3.13044,1.9399 l 2.77827,1.49304 0.18293,24.07218 c 0.10061,13.2397 -0.0559,24.03587 -0.34783,23.99149 -0.29191,-0.0444 -1.07858,-0.22386 -1.74814,-0.39884 z"  />
  <path fill="currentColor" d="m 255.56247,192.25263 c -0.14197,-0.33025 -2.12554,-1.53959 -4.40793,-2.68741 -2.2824,-1.14783 -4.57432,-2.47826 -5.09317,-2.95652 -0.51885,-0.47827 -1.39056,-0.86957 -1.93715,-0.86957 -0.54658,0 -0.99379,-0.29195 -0.99379,-0.64877 0,-0.35683 -0.70434,-0.86859 -1.56521,-1.13724 -0.86087,-0.26866 -1.72174,-0.697 -1.91305,-0.95188 -0.1913,-0.25487 -1.91304,-1.27412 -3.82608,-2.26499 -6.31986,-3.2734 -8.27446,-4.37945 -9.16168,-5.18433 -0.48254,-0.43775 -2.37508,-1.51181 -4.20566,-2.38681 -1.83057,-0.875 -3.48484,-1.79577 -3.67614,-2.04616 -0.19131,-0.25038 -0.96709,-0.79396 -1.72397,-1.20794 -1.29986,-0.71097 -1.2613,-0.80363 0.69565,-1.67157 1.13949,-0.50537 2.48546,-1.31382 2.99105,-1.79654 0.50559,-0.48273 1.36646,-0.87768 1.91305,-0.87768 0.54658,0 0.99378,-0.27911 0.99378,-0.62024 0,-0.34113 0.76072,-0.81117 1.69049,-1.04452 0.92977,-0.23336 2.10924,-0.81512 2.62104,-1.29281 0.51181,-0.47769 2.41196,-1.64459 4.22256,-2.59312 1.8106,-0.94853 3.292,-1.93199 3.292,-2.18546 0,-0.25347 0.83616,-0.67071 1.85814,-0.92721 1.02198,-0.2565 2.62941,-1.07305 3.57208,-1.81455 0.94266,-0.7415 2.14128,-1.34818 2.6636,-1.34818 0.52231,0 0.94966,-0.24441 0.94966,-0.54314 0,-0.29873 0.86087,-0.91345 1.91304,-1.36605 2.39224,-1.02903 4.54409,-2.40013 5.19202,-3.3082 0.65208,-0.91388 8.10587,-0.90181 8.7464,0.0142 0.273,0.39039 1.41126,1.173 2.52946,1.73913 3.90789,1.9785 4.5756,2.40657 4.5756,2.93341 0,0.29188 0.42735,0.53069 0.94966,0.53069 0.52232,0 1.72094,0.60668 2.6636,1.34818 0.94267,0.7415 2.5501,1.55805 3.57208,1.81455 1.02198,0.2565 1.85814,0.67374 1.85814,0.92721 0,0.25347 1.4814,1.23693 3.292,2.18546 1.8106,0.94853 3.69071,2.0954 4.17803,2.54859 0.48732,0.4532 1.58853,1.04322 2.44713,1.31116 0.8586,0.26793 1.71762,0.67975 1.90893,0.91513 0.1913,0.23539 1.81184,1.21059 3.60121,2.16711 1.78936,0.95652 3.31533,2.04769 3.39104,2.42482 0.0757,0.37712 -1.23179,1.38733 -2.90555,2.24491 -1.67378,0.85758 -3.42132,1.87945 -3.88343,2.27084 -0.46211,0.39138 -1.1441,0.71161 -1.51553,0.71161 -0.37142,0 -1.10408,0.3913 -1.62812,0.86956 -0.9508,0.86774 -4.6635,2.99996 -9.92919,5.70237 -1.53043,0.78544 -2.93913,1.62066 -3.13043,1.85604 -0.19131,0.23539 -1.05218,0.64779 -1.91305,0.91645 -0.86087,0.26865 -1.56521,0.78041 -1.56521,1.13724 0,0.35682 -0.44721,0.64877 -0.99379,0.64877 -0.54659,0 -1.4183,0.3913 -1.93715,0.86957 -0.51885,0.47826 -2.81077,1.80869 -5.09317,2.95652 -2.28239,1.14782 -4.3467,2.35716 -4.58734,2.68741 -0.24544,0.33684 -0.55085,0.33684 -0.69565,0 z"  />
  <path fill="currentColor" d="m 265.55615,233.36888 0.18298,-24.12194 2.77827,-1.49304 c 1.52805,-0.82116 2.93675,-1.69412 3.13044,-1.9399 0.19369,-0.24578 2.23042,-1.43025 4.52607,-2.63215 4.4871,-2.34925 6.75017,-3.66275 7.30435,-4.23949 0.19131,-0.19909 1.13044,-0.73515 2.08696,-1.19125 0.95652,-0.4561 3.61739,-1.93908 5.91304,-3.29551 2.29565,-1.35643 5.03478,-2.84552 6.08696,-3.30909 1.05217,-0.46356 1.91304,-1.08725 1.91304,-1.38598 0,-0.29873 0.39131,-0.5501 0.86957,-0.55861 0.47826,-0.008 1.65217,-0.62763 2.60869,-1.37583 3.52369,-2.75627 3.47826,-3.03126 3.47826,21.05433 0,26.8913 0.26979,25.83854 -7.65217,29.86049 -0.95652,0.48562 -1.89565,1.04584 -2.08696,1.24493 -0.39488,0.41096 -2.87251,1.81355 -8.17391,4.62729 -2.0087,1.06612 -3.65217,2.16117 -3.65217,2.43345 0,0.27227 -0.93914,0.70131 -2.08696,0.95342 -1.14783,0.25211 -2.08696,0.74654 -2.08696,1.09875 0,0.35221 -0.4472,0.64038 -0.99379,0.64038 -0.54658,0 -1.40745,0.40754 -1.91304,0.90564 -0.50559,0.4981 -2.417,1.6269 -4.24757,2.50844 -1.83058,0.88154 -3.72344,1.99793 -4.20636,2.48085 -0.48292,0.48292 -1.57187,1.09825 -2.41988,1.36739 l -1.54185,0.48937 z"  />
  <path fill="currentColor" d="m 86.729761,341.36517 c 0.136601,-9.96848 0.50335,-16.74492 0.922413,-17.04348 0.382609,-0.27258 1.321739,-1.74587 2.086956,-3.27397 2.578694,-5.14953 10.58197,-11.4825 14.51098,-11.4825 0.62766,0 1.14119,-0.31305 1.14119,-0.69565 0,-0.45927 24.34783,-0.69566 71.65218,-0.69566 h 71.65217 V 295.13043 282.08696 H 256 h 7.30435 v 13.04347 13.04348 h 71.65217 c 47.30435,0 71.65218,0.23639 71.65218,0.69566 0,0.3826 0.51353,0.69565 1.14119,0.69565 3.929,0 11.93229,6.33297 14.51098,11.4825 0.76522,1.5281 1.70435,3.00139 2.08696,3.27397 0.41906,0.29856 0.7858,7.075 0.92241,17.04348 l 0.22676,16.54787 h -7.35732 -7.35732 l 1.2e-4,-13.69936 c 1.2e-4,-12.56196 -0.1183,-13.90009 -1.42624,-16.11688 -2.9369,-4.97768 2.92775,-4.61854 -75.41872,-4.61854 h -70.63317 v 17.21739 17.21739 H 256 248.69565 v -17.21739 -17.21739 h -70.67522 c -69.84782,0 -70.69838,0.0165 -72.65328,1.4085 -3.77524,2.68821 -4.14977,4.43864 -4.14963,19.39403 l 1.2e-4,13.63225 h -7.35732 -7.357321 z"  />
  <path fill="currentColor" d="m 253.87826,421.62913 c -0.77324,-0.73915 -4.77499,-3.15682 -7.26956,-4.39192 -0.95653,-0.47358 -1.89566,-1.02396 -2.08696,-1.22305 -0.65599,-0.6827 -3.13177,-2.1297 -5.49269,-3.21028 -1.29924,-0.59465 -2.80856,-1.52749 -3.35404,-2.07297 -0.54548,-0.54548 -1.43898,-0.99178 -1.98557,-0.99178 -0.54658,0 -0.99379,-0.30708 -0.99379,-0.6824 0,-0.37532 -0.78261,-0.87882 -1.73913,-1.11889 -0.95652,-0.24007 -1.73913,-0.7156 -1.73913,-1.05673 0,-0.34113 -0.42735,-0.62024 -0.94966,-0.62024 -0.52232,0 -1.72094,-0.60668 -2.6636,-1.34818 -0.94266,-0.7415 -2.52745,-1.55236 -3.52174,-1.80191 -0.99429,-0.24955 -1.97715,-0.89505 -2.18413,-1.43443 -0.20699,-0.53938 -0.72156,-0.9807 -1.14351,-0.9807 -0.42194,0 -1.16738,-0.40021 -1.65653,-0.88936 -1.06299,-1.06299 -0.18526,-2.12606 2.43348,-2.9473 0.92713,-0.29075 2.43226,-1.11166 3.34472,-1.82425 0.91247,-0.71258 2.08638,-1.29561 2.6087,-1.29561 0.52231,0 0.94966,-0.31304 0.94966,-0.69565 0,-0.38261 0.47939,-0.69565 1.06531,-0.69565 0.58592,0 1.23816,-0.45044 1.44942,-1.00097 0.21126,-0.55054 1.29709,-1.2015 2.41295,-1.44658 1.11587,-0.24509 2.02994,-0.65552 2.03128,-0.91207 0.001,-0.25656 1.79866,-1.4056 3.99406,-2.55343 2.19539,-1.14782 4.40796,-2.47826 4.91682,-2.95652 0.50886,-0.47826 1.3724,-0.86956 1.91898,-0.86956 0.54659,0 0.99379,-0.28242 0.99379,-0.6276 0,-0.34518 0.86087,-0.97826 1.91304,-1.40683 2.61766,-1.06623 6.03725,-3.07112 6.31885,-3.7047 0.30861,-0.69439 4.9855,-0.67431 4.9855,0.0214 0,0.29872 0.86087,0.91344 1.91305,1.36604 1.05217,0.4526 2.3826,1.13238 2.95652,1.51062 3.67529,2.42222 18.05808,10.49324 18.69925,10.49324 0.42845,0 0.77901,0.24132 0.77901,0.53627 0,0.29495 1.48696,1.31234 3.30435,2.26087 1.81739,0.94853 3.53513,2.08096 3.8172,2.51652 0.28207,0.43556 1.33727,0.99884 2.3449,1.25174 1.00763,0.25289 2.23664,0.86439 2.73113,1.35888 0.735,0.735 0.64062,1.07786 -0.5171,1.8787 -0.7789,0.5388 -1.80957,1.35548 -2.29038,1.81485 -0.48081,0.45937 -1.69463,1.04113 -2.69737,1.2928 -1.00274,0.25168 -1.82317,0.71643 -1.82317,1.0328 0,0.31636 -1.09565,0.9714 -2.43478,1.45564 -1.33913,0.48423 -2.43478,1.13058 -2.43478,1.43633 0,0.30575 -0.42167,0.5559 -0.93704,0.5559 -0.51537,0 -1.65892,0.62609 -2.54122,1.39131 -0.88231,0.76522 -2.02586,1.3913 -2.54123,1.3913 -0.51537,0 -0.93703,0.28242 -0.93703,0.6276 0,0.34518 -0.86087,0.95621 -1.91305,1.35785 -1.83798,0.7016 -5.71152,2.85651 -6.43478,3.57977 -0.6211,0.6211 -3.06523,2.0465 -6.09582,3.55504 -1.63097,0.81184 -3.1364,1.75278 -3.34541,2.09096 -0.49669,0.80365 -3.31235,0.79224 -4.15877,-0.0169 z"  />
  <path fill="currentColor" d="m 244.52174,486.95652 c 0,-0.38261 -0.42735,-0.69565 -0.94966,-0.69565 -0.52232,0 -1.72094,-0.60668 -2.6636,-1.34818 -0.94267,-0.7415 -2.5501,-1.55805 -3.57208,-1.81455 -1.02198,-0.2565 -1.85814,-0.67374 -1.85814,-0.92721 0,-0.25347 -1.4814,-1.23693 -3.292,-2.18546 -1.8106,-0.94853 -3.71075,-2.11543 -4.22256,-2.59312 -0.5118,-0.47769 -1.69127,-1.05945 -2.62104,-1.29281 -0.92977,-0.23335 -1.69049,-0.66945 -1.69049,-0.96911 0,-0.29965 -0.7826,-0.74124 -1.73913,-0.98131 -0.95652,-0.24007 -1.73913,-0.74358 -1.73913,-1.1189 0,-0.37531 -0.33668,-0.68239 -0.74819,-0.68239 -1.13378,0 -10.32349,-5.5066 -12.02123,-7.20328 -1.45708,-1.45618 -1.49625,-2.03139 -1.6997,-24.96106 -0.237,-26.70986 -0.94431,-24.4168 6.23835,-20.22425 2.16873,1.2659 4.28177,2.30163 4.69565,2.30163 0.41388,0 0.75251,0.30708 0.75251,0.6824 0,0.37532 0.78261,0.87882 1.73913,1.11889 0.95653,0.24007 1.73914,0.68498 1.73914,0.98868 0,0.3037 0.86086,0.89419 1.91304,1.31219 1.05217,0.418 3.7913,1.86283 6.08696,3.21074 2.29565,1.34791 4.95652,2.83288 5.91304,3.29994 0.95652,0.46706 2.15232,1.24368 2.65734,1.72583 0.50501,0.48215 1.67893,1.06756 2.60869,1.30092 0.92977,0.23335 1.69049,0.70339 1.69049,1.04452 0,0.34113 0.42167,0.62024 0.93704,0.62024 0.51537,0 1.61102,0.58454 2.43478,1.29899 1.4786,1.28238 1.49775,1.60249 1.49775,25.04347 0,20.64245 -0.13633,23.74449 -1.04348,23.74449 -0.57392,0 -1.04348,-0.31304 -1.04348,-0.69565 z"  />
  <path fill="currentColor" d="m 265.3913,463.90768 c 0,-23.44098 0.0192,-23.76109 1.49775,-25.04347 0.82376,-0.71445 1.91941,-1.29899 2.43478,-1.29899 0.51537,0 0.93704,-0.31305 0.93704,-0.69565 0,-0.38261 0.37767,-0.69566 0.83928,-0.69566 0.67903,0 10.73765,-5.57106 15.16072,-8.39691 0.57391,-0.36666 1.90435,-1.00581 2.95652,-1.42032 1.05218,-0.41451 1.91304,-1.00214 1.91304,-1.30584 0,-0.3037 0.78261,-0.74861 1.73914,-0.98868 0.95652,-0.24007 1.73913,-0.74357 1.73913,-1.11889 0,-0.37532 0.33863,-0.6824 0.75251,-0.6824 0.41388,0 2.52692,-1.03573 4.69565,-2.30163 7.18266,-4.19255 6.47535,-6.48561 6.23835,20.22425 -0.20234,22.80377 -0.24992,23.51217 -1.67485,24.9362 -1.67153,1.67048 -14.42327,9.31509 -15.53821,9.31509 -0.40388,0 -0.73432,0.27911 -0.73432,0.62024 0,0.34113 -0.76072,0.81117 -1.69049,1.04452 -0.92977,0.23336 -2.10924,0.81512 -2.62104,1.29281 -0.51181,0.47769 -2.41196,1.64459 -4.22256,2.59312 -1.8106,0.94853 -3.292,1.94105 -3.292,2.2056 0,0.26454 -0.93913,0.68726 -2.08696,0.93936 -1.14782,0.25211 -2.08695,0.72629 -2.08695,1.05373 0,0.32744 -1.09566,0.99154 -2.43479,1.47578 -1.33913,0.48423 -2.43478,1.13059 -2.43478,1.43633 0,0.30575 -0.46956,0.5559 -1.04348,0.5559 -0.90715,0 -1.04348,-3.10204 -1.04348,-23.74449 z"  />
  <path fill="currentColor" d="m 82.434783,487.09627 c 0,-0.30574 -1.095653,-0.9521 -2.434783,-1.43633 -1.33913,-0.48424 -2.434783,-1.14834 -2.434783,-1.47578 0,-0.32744 -0.93913,-0.80162 -2.086956,-1.05373 -1.147826,-0.2521 -2.086957,-0.67482 -2.086957,-0.93936 0,-0.26455 -1.486956,-1.25707 -3.304347,-2.2056 -1.817392,-0.94853 -3.46087,-1.88162 -3.652174,-2.07354 -0.191305,-0.19191 -1.286957,-0.8175 -2.434783,-1.39019 -1.147826,-0.57269 -2.243478,-1.20465 -2.434783,-1.40436 -0.191304,-0.1997 -1.130434,-0.74575 -2.086956,-1.21345 -0.956522,-0.46769 -2.208696,-1.16067 -2.782609,-1.53994 -0.573913,-0.37928 -3.036229,-1.82647 -5.471814,-3.216 -8.041724,-4.58787 -7.368115,-2.01921 -7.597991,-28.97325 -0.110132,-12.9135 -0.03204,-23.47909 0.17355,-23.47909 0.652736,0 7.560516,3.78978 8.558954,4.69565 0.527131,0.47827 1.405624,0.86957 1.952208,0.86957 0.546584,0 0.993789,0.30708 0.993789,0.6824 0,0.37532 0.782609,0.87882 1.73913,1.11889 0.956522,0.24007 1.739131,0.7156 1.739131,1.05673 0,0.34113 0.427349,0.62024 0.949663,0.62024 0.522315,0 1.696228,0.58303 2.608696,1.29561 0.912468,0.71259 2.42704,1.53649 3.365717,1.83091 0.938677,0.29441 2.101727,0.8853 2.584554,1.31309 2.323637,2.05873 3.023505,2.49301 4.692691,2.91195 0.989273,0.2483 1.798679,0.69257 1.798679,0.98728 0,0.29472 1.017391,0.94736 2.260869,1.45031 1.243479,0.50296 2.417392,1.08876 2.608696,1.30179 0.191304,0.21303 1.286956,0.91531 2.434783,1.56063 l 2.086956,1.17331 0.182927,24.04408 c 0.160384,21.08088 0.05322,24.04408 -0.869565,24.04408 -0.578871,0 -1.052492,-0.25015 -1.052492,-0.5559 z"  />
  <path fill="currentColor" d="m 103.30435,463.95031 c 0,-19.61408 0.17139,-23.87326 0.99379,-24.69565 0.54658,-0.54659 1.30683,-0.99379 1.68944,-0.99379 0.38261,0 1.12308,-0.3913 1.64549,-0.86957 0.52242,-0.47826 2.18826,-1.51219 3.70187,-2.29763 5.21046,-2.70379 9.00977,-4.83372 9.35876,-5.24662 0.19238,-0.2276 2.85413,-1.74571 5.915,-3.37359 3.06087,-1.62788 5.66956,-3.24166 5.7971,-3.58619 0.12753,-0.34452 0.54442,-0.6264 0.92642,-0.6264 0.382,0 2.46896,-1.03573 4.63768,-2.30163 7.20119,-4.20337 6.49186,-6.49979 6.24604,20.22132 L 144,463.65407 l -1.73314,1.73818 c -1.57024,1.57482 -5.85583,4.2197 -10.44077,6.44362 -0.95652,0.46395 -2.1528,1.23851 -2.65839,1.72123 -0.50559,0.48273 -1.36646,0.87768 -1.91304,0.87768 -0.54659,0 -0.99379,0.28877 -0.99379,0.64171 0,0.35293 -1.09565,1.0033 -2.43478,1.44525 -1.33913,0.44195 -2.43479,1.02369 -2.43479,1.29274 0,0.26905 -0.86087,0.85667 -1.91304,1.30581 -1.05217,0.44915 -3.7913,1.93471 -6.08696,3.30126 -2.29565,1.36655 -5.03478,2.85807 -6.08695,3.31448 -1.05218,0.45643 -1.91305,1.07428 -1.91305,1.37301 0,0.29872 -0.46956,0.54313 -1.04347,0.54313 -0.90712,0 -1.04348,-3.0973 -1.04348,-23.70186 z"  />
  <path fill="currentColor" d="m 91.876011,421.646 c -0.209007,-0.33818 -1.714438,-1.27912 -3.345403,-2.09096 -3.228739,-1.60717 -5.54983,-2.98014 -6.095825,-3.60578 -0.191305,-0.21921 -0.817392,-0.60885 -1.391305,-0.86585 -0.573913,-0.25701 -2.608695,-1.40298 -4.521739,-2.54661 -1.913043,-1.14364 -4.026087,-2.27747 -4.695652,-2.51964 -0.669565,-0.24216 -1.217391,-0.71683 -1.217391,-1.05482 0,-0.33798 -0.447205,-0.61451 -0.993789,-0.61451 -0.546584,0 -1.462139,-0.46835 -2.034567,-1.04078 -0.572427,-0.57243 -1.7687,-1.35727 -2.658385,-1.7441 -2.613248,-1.13621 -9.02433,-4.87029 -9.948411,-5.79438 -1.041316,-1.04131 -0.286696,-1.85845 2.939499,-3.18303 1.243479,-0.51054 2.26087,-1.20331 2.26087,-1.5395 0,-0.33619 0.328964,-0.61126 0.731032,-0.61126 0.402068,0 4.434121,-2.1913 8.960118,-4.86956 4.525997,-2.67826 8.579641,-4.86957 9.008098,-4.86957 0.428457,0 0.779013,-0.27653 0.779013,-0.61452 0,-0.33798 0.547826,-0.81505 1.217391,-1.06015 0.669565,-0.2451 2.469565,-1.22348 4,-2.17416 1.530435,-0.95069 3.643478,-2.10746 4.695652,-2.57062 1.052174,-0.46315 1.913044,-1.08651 1.913044,-1.38523 0,-0.69571 4.676892,-0.71579 4.985507,-0.0214 0.127536,0.28695 2.03079,1.46086 4.229452,2.60869 2.19866,1.14783 3.99866,2.29687 4,2.55342 0.001,0.25656 0.94156,0.67274 2.08939,0.92484 1.14782,0.25211 2.08696,0.67926 2.08696,0.94924 0,0.26998 1.72064,1.41902 3.82365,2.55342 2.10301,1.13441 3.82475,2.27247 3.82609,2.52903 10e-4,0.25655 0.91541,0.66698 2.03127,0.91207 1.11586,0.24508 2.20169,0.89604 2.41295,1.44658 0.21126,0.55053 0.8635,1.00097 1.44942,1.00097 0.58592,0 1.06531,0.31304 1.06531,0.69565 0,0.38261 0.42735,0.69565 0.94966,0.69565 0.52232,0 1.69623,0.58303 2.6087,1.29561 0.91247,0.71259 2.41759,1.5335 3.34473,1.82425 2.61873,0.82124 3.49647,1.88431 2.43347,2.9473 -0.48914,0.48915 -1.23458,0.88936 -1.65653,0.88936 -0.42194,0 -0.93652,0.44132 -1.1435,0.9807 -0.20698,0.53938 -1.18984,1.18488 -2.18414,1.43443 -0.99429,0.24955 -2.57907,1.06041 -3.52174,1.80191 -0.94266,0.7415 -2.14128,1.34818 -2.66359,1.34818 -0.52232,0 -0.94967,0.23881 -0.94967,0.53069 0,0.53452 -1.51637,1.45835 -5.04348,3.07267 -1.05217,0.48157 -1.91304,1.09571 -1.91304,1.36477 0,0.26905 -1.09565,0.85079 -2.43478,1.29274 -1.33913,0.44195 -2.43478,1.05838 -2.43478,1.36984 0,0.31146 -0.78261,0.76271 -1.73914,1.00278 -0.95652,0.24007 -1.73913,0.74357 -1.73913,1.11889 0,0.37532 -0.4472,0.6824 -0.99378,0.6824 -0.54659,0 -1.40746,0.40277 -1.91305,0.89505 -1.31133,1.2768 -8.005703,4.67017 -9.213219,4.67017 -0.558375,0 -1.186233,-0.27669 -1.39524,-0.61487 z"  />
  <path fill="currentColor" d="m 413.91304,420.33642 c -1.91304,-1.01861 -3.89192,-2.25448 -4.39751,-2.74639 -0.50559,-0.49191 -1.36646,-0.89438 -1.91305,-0.89438 -0.54658,0 -0.99378,-0.30708 -0.99378,-0.6824 0,-0.37532 -0.78261,-0.87882 -1.73913,-1.11889 -0.95653,-0.24007 -1.73914,-0.69534 -1.73914,-1.0117 0,-0.31637 -1.09565,-0.97141 -2.43478,-1.45564 -1.33913,-0.48424 -2.43478,-1.13059 -2.43478,-1.43633 0,-0.30575 -0.42167,-0.55591 -0.93704,-0.55591 -0.51537,0 -1.65892,-0.62608 -2.54122,-1.3913 -0.8823,-0.76522 -2.02586,-1.39131 -2.54123,-1.39131 -0.51537,0 -0.93703,-0.27653 -0.93703,-0.61451 0,-0.33799 -0.54783,-0.79905 -1.21739,-1.02458 -0.66957,-0.22553 -2.78261,-1.34522 -4.69566,-2.48821 -1.91304,-1.14299 -3.94782,-2.30789 -4.52173,-2.58868 -2.87431,-1.40624 -2.77264,-2.14267 0.55097,-3.991 1.80131,-1.00174 4.13598,-2.20154 5.18816,-2.66622 1.05217,-0.46468 1.91304,-1.08928 1.91304,-1.38801 0,-0.29872 0.47939,-0.54313 1.06531,-0.54313 0.58592,0 1.23816,-0.45044 1.44942,-1.00097 0.21126,-0.55054 1.29709,-1.2015 2.41295,-1.44658 1.11586,-0.24509 2.02884,-0.6958 2.02884,-1.00159 0,-0.30579 1.01739,-0.96749 2.26087,-1.47045 1.24348,-0.50296 2.41739,-1.08876 2.6087,-1.30179 0.50155,-0.55851 2.85343,-2.00111 4.86956,-2.9869 0.95652,-0.4677 1.90202,-1.07193 2.10112,-1.34274 0.19909,-0.27081 1.13822,-0.83024 2.08695,-1.24319 0.94874,-0.41294 3.10465,-1.52818 4.79091,-2.4783 3.12807,-1.7625 6.32537,-2.28407 6.32537,-1.03184 0,0.38261 0.42735,0.69565 0.94966,0.69565 0.52232,0 1.69623,0.58302 2.6087,1.29561 0.91247,0.71259 2.42704,1.53649 3.36572,1.83091 0.93867,0.29441 2.10172,0.8853 2.58455,1.31309 1.51798,1.34492 2.68291,2.13515 4.79313,3.25143 6.6588,3.52244 9.73901,5.25871 10.421,5.87418 0.42396,0.38261 1.99522,1.32174 3.49169,2.08695 1.49646,0.76522 3.13882,1.78214 3.64967,2.25983 0.51085,0.47769 1.68954,1.05945 2.61931,1.29281 0.92977,0.23335 1.69048,0.70339 1.69048,1.04452 0,0.34113 0.54783,0.62618 1.21739,0.63345 1.48594,0.0161 -7.73497,5.8855 -14.43478,9.18813 -0.95652,0.47151 -1.89565,1.04302 -2.08696,1.27002 -0.1913,0.227 -0.81739,0.63961 -1.3913,0.91691 -0.57391,0.27731 -2.29565,1.27459 -3.82609,2.2162 -1.53043,0.9416 -3.64348,2.09095 -4.69565,2.55411 -1.05217,0.46315 -1.91304,1.08651 -1.91304,1.38523 0,0.29873 -0.47939,0.54314 -1.06531,0.54314 -0.58592,0 -1.23466,0.44132 -1.44164,0.9807 -0.20698,0.53938 -1.19546,1.18628 -2.19661,1.43756 -1.00115,0.25127 -2.6703,1.06213 -3.70923,1.80191 -2.40887,1.71527 -3.02191,1.6662 -7.23939,-0.5794 z"  />
  <path fill="currentColor" d="m 406.6087,487.10904 c 0,-0.29873 -0.86087,-0.91345 -1.91305,-1.36606 -1.05217,-0.45259 -2.38261,-1.12624 -2.95652,-1.497 -3.68224,-2.37875 -13.12944,-7.63836 -14.43478,-8.03639 -0.86087,-0.26249 -1.56522,-0.73527 -1.56522,-1.05062 0,-0.31535 -0.78261,-0.76978 -1.73913,-1.00985 -0.95652,-0.24007 -1.73913,-0.74358 -1.73913,-1.1189 0,-0.37531 -0.32315,-0.68239 -0.7181,-0.68239 -1.47084,0 -10.84587,-5.84264 -12.16932,-7.58408 -1.29313,-1.70154 -1.38565,-3.15949 -1.58213,-24.92917 -0.23749,-26.31432 -0.94283,-24.06728 6.23878,-19.87534 2.16872,1.2659 4.28177,2.30163 4.69565,2.30163 0.41388,0 0.75251,0.31304 0.75251,0.69565 0,0.38261 0.44721,0.69565 0.99379,0.69565 0.54658,0 1.40745,0.40278 1.91304,0.89505 0.50559,0.49228 2.641,1.78473 4.74534,2.87212 2.10435,1.08739 3.98285,2.17157 4.17444,2.4093 0.35812,0.44434 2.62362,1.71221 8.69513,4.86614 1.91304,0.99375 3.89193,2.20266 4.39752,2.68646 0.50559,0.4838 1.23229,0.87963 1.6149,0.87963 0.38261,0 1.14286,0.4472 1.68944,0.99379 1.52691,1.5269 1.47878,48.39751 -0.0497,48.39751 -0.57391,0 -1.04347,-0.24441 -1.04347,-0.54313 z" id="path6623" />
  <path fill="currentColor" d="m 427.64316,463.5047 0.18293,-24.14747 2.08695,-1.06992 c 1.14783,-0.58846 2.24348,-1.24421 2.43479,-1.45724 0.1913,-0.21303 1.36521,-0.79883 2.60869,-1.30179 1.24348,-0.50295 2.26087,-1.15559 2.26087,-1.45031 0,-0.29471 0.82043,-0.74175 1.82317,-0.99342 1.00274,-0.25167 2.24405,-0.83344 2.75846,-1.29281 2.20209,-1.96645 2.92056,-2.43241 4.51528,-2.92832 0.92714,-0.28832 2.51663,-1.10923 3.53222,-1.82425 1.01558,-0.71502 2.16341,-1.30004 2.55072,-1.30004 0.38732,0 0.80856,-0.23478 0.93609,-0.52174 0.12754,-0.28696 1.46104,-1.14782 2.96335,-1.91304 1.5023,-0.76522 3.08514,-1.70435 3.51742,-2.08696 0.89119,-0.78878 7.81473,-4.52174 8.3865,-4.52174 0.20559,0 0.28369,10.56559 0.17355,23.47909 -0.19353,22.69214 -0.24847,23.52568 -1.63943,24.86956 -1.94159,1.87588 -4.85656,3.82383 -8.8255,5.89769 -1.81529,0.94853 -3.30052,1.94105 -3.30052,2.2056 0,0.26455 -0.93913,0.68726 -2.08696,0.93937 -1.14783,0.2521 -2.08696,0.67012 -2.08696,0.92893 0,0.25881 -1.01739,0.91321 -2.26087,1.45422 -1.24348,0.541 -2.41739,1.17162 -2.60869,1.40136 -0.19131,0.22975 -1.13044,0.80038 -2.08696,1.26808 -1.88659,0.92245 -4.31363,2.39147 -4.86956,2.94741 -0.19131,0.1913 -2.22609,1.28695 -4.52174,2.43478 -2.29566,1.14783 -4.27826,2.32174 -4.4058,2.60869 -0.12754,0.28696 -0.67942,0.52174 -1.22641,0.52174 -0.84667,0 -0.96732,-3.58982 -0.81159,-24.14747 z" id="path6662" />
</svg>
